<svg version="1.1" viewBox="0.0 0.0 960.0 288.0" fill="none" stroke="none" stroke-linecap="square" stroke-miterlimit="10" xmlns:xlink="http://www.w3.org/1999/xlink" xmlns="http://www.w3.org/2000/svg"><clipPath id="g339f87d4be3_0_1.0"><path d="m0 0l960.0 0l0 288.0l-960.0 0l0 -288.0z" clip-rule="nonzero"/></clipPath><g clip-path="url(#g339f87d4be3_0_1.0)"><path fill="#000000" fill-opacity="0.0" d="m0 0l960.0 0l0 288.0l-960.0 0z" fill-rule="evenodd"/><path fill="#000000" fill-opacity="0.0" d="m32.725285 86.534386l894.5512 0l0 114.92913l-894.5512 0z" fill-rule="evenodd"/><path fill="#2467b1" d="m91.36808 82.66457q2.53125 0 6.765625 0.265625q4.234375 0.25 6.265625 0.40625l0 18.375q-2.453125 -0.25 -4.703125 -0.375q-2.234375 -0.140625 -4.1875 -0.140625q-5.15625 0 -7.3125 2.25q-2.15625 2.234375 -2.15625 9.1875l0 4.140625l17.0 0l0 16.499992l-17.0 0l0 73.125l-24.640629 0l0 -73.125l-14.71875 0l0 -16.499992l14.71875 0l0 -6.171875q0 -13.96875 8.078129 -20.953125q8.09375 -6.984375 21.890625 -6.984375zm63.563362 31.734375q19.890625 0 29.578125 6.515625q9.6875 6.515625 9.6875 18.374992l0 48.0625q0 5.421875 0.71875 10.84375q0.71875 5.40625 2.40625 8.203125l-24.96875 0q-0.671875 -2.03125 -1.140625 -4.1875q-0.453125 -2.15625 -0.625 -4.359375q-5.171875 5.328125 -12.828125 8.171875q-7.65625 2.828125 -17.3125 2.828125q-13.874992 0 -22.171867 -6.984375q-8.296875 -6.984375 -8.296875 -19.921875q0 -12.53125 7.78125 -19.171875q7.796875 -6.640625 28.359367 -8.9375q14.3125 -1.34375 18.875 -3.5q4.578125 -2.171875 4.578125 -7.5q0 -6.0 -3.515625 -9.0q-3.515625 -3.015625 -12.3125 -3.015625q-7.625 0 -11.6875 3.265625q-4.0625 3.25 -4.734375 10.28125l-24.624992 0q1.015625 -14.734375 12.140625 -22.343742q11.124992 -7.625 30.093742 -7.625zm-20.40625 66.53124q0 5.328125 3.640625 8.375q3.640625 3.046875 11.515625 3.046875q9.8125 0 14.84375 -5.15625q5.046875 -5.171875 5.046875 -15.078125l0 -9.5625q-2.203125 1.78125 -5.8125 2.671875q-3.59375 0.890625 -12.984375 2.234375q-8.375 1.109375 -12.3125 4.375q-3.9375 3.25 -3.9375 9.09375zm121.70015 -66.53124q17.359375 0 29.25 8.984375q11.890625 8.968742 12.90625 24.953117l-24.125 0q-1.09375 -7.703125 -5.671875 -11.546875q-4.5625 -3.859375 -12.515625 -3.859375q-9.906265 0 -15.406265 8.125q-5.5 8.125 -5.5 21.0q0 12.859375 5.40625 20.5625q5.421875 7.703125 14.984375 7.703125q8.20314 0 13.281265 -4.6875q5.078125 -4.703125 6.359375 -13.59375l23.6875 0q-2.453125 17.765625 -13.875 27.296875q-11.421875 9.515625 -29.281265 9.515625q-19.96875 0 -32.59375 -12.8125q-12.609375 -12.828125 -12.609375 -33.140625q0 -21.75 12.40625 -35.124992q12.40625 -13.375 33.29689 -13.375zm98.0126 0q19.890625 0 31.78125 13.671867q11.890625 13.671875 11.890625 34.90625l-0.171875 4.578125l-64.65625 0q0.5 11.59375 6.046875 17.1875q5.546875 5.578125 15.875 5.578125q6.6875 0 12.34375 -3.421875q5.671875 -3.4375 7.203125 -8.265625l21.65625 0q-4.984375 15.234375 -15.40625 22.734375q-10.40625 7.484375 -26.5625 7.484375q-20.734375 0 -33.265625 -13.109375q-12.515625 -13.125 -12.515625 -34.03125q0 -20.0625 12.8125 -33.6875q12.828125 -13.624992 32.96875 -13.624992zm-21.15625 37.578117l40.03125 0q-1.78125 -9.90625 -6.390625 -14.46875q-4.609375 -4.578125 -13.328125 -4.578125q-8.96875 0 -14.21875 5.078125q-5.25 5.078125 -6.09375 13.96875zm103.84076 -69.31249l0 45.03125l0.421875 0q3.984375 -6.09375 11.421875 -9.6875q7.453125 -3.609375 16.765625 -3.609375q15.734375 0 26.4375 12.75q10.71875 12.734367 10.71875 34.390617q0 21.5 -10.71875 34.40625q-10.703125 12.90625 -26.53125 12.90625q-10.828125 0 -18.28125 -3.59375q-7.4375 -3.59375 -11.078125 -10.28125l-0.34375 0l0 11.421875l-23.359375 0l0 -123.73437l24.546875 0zm-0.84375 79.04687q0 12.859375 5.671875 20.734375q5.671875 7.875 15.3125 7.875q9.65625 0 15.3125 -7.875q5.671875 -7.875 5.671875 -20.734375q0 -12.953125 -5.546875 -20.859375q-5.53125 -7.921875 -15.609375 -7.921875q-9.390625 0 -15.109375 7.75q-5.703125 7.75 -5.703125 21.03125zm106.71951 -44.937492l0 51.374992q0 10.15625 3.546814 15.703125q3.5625 5.53125 12.28125 5.53125q10.15625 0 14.59375 -6.125q4.453125 -6.140625 4.453125 -18.671875l0 -47.812492l24.625 0l0 89.62499l-23.453125 0l0 -12.4375l-0.5 0q-4.65625 7.4375 -12.015625 11.171875q-7.359375 3.71875 -15.484375 3.71875q-16.671814 0 -24.640564 -8.5q-7.953125 -8.515625 -7.953125 -27.46875l0 -56.109367l24.546875 0zm165.5412 -34.109375l0 123.73437l-23.4375 0l0 -11.421875l-0.34375 0q-3.984375 6.859375 -10.96875 10.375q-6.96875 3.5 -16.203125 3.5q-18.359375 0 -29.28125 -13.5q-10.921875 -13.5 -10.921875 -34.5625q0 -19.984375 10.75 -33.187492q10.75 -13.203125 28.953125 -13.203125q8.375 0 15.3125 3.390625q6.9375 3.390625 11.171875 9.90625l0.34375 0l0 -45.03125l24.625 0zm-66.609375 78.79687q0 12.515625 5.84375 20.6875q5.84375 8.171875 15.828125 8.171875q10.234375 0 15.6875 -7.578125q5.46875 -7.578125 5.46875 -21.375q0 -13.109375 -5.328125 -20.765625q-5.328125 -7.671875 -15.921875 -7.671875q-10.234375 0 -15.90625 7.671875q-5.671875 7.65625 -5.671875 20.859375zm172.4851 -78.79687l0 123.73437l-23.4375 0l0 -11.421875l-0.34375 0q-3.984375 6.859375 -10.96875 10.375q-6.96875 3.5 -16.203125 3.5q-18.359375 0 -29.28125 -13.5q-10.921875 -13.5 -10.921875 -34.5625q0 -19.984375 10.75 -33.187492q10.75 -13.203125 28.953125 -13.203125q8.375 0 15.3125 3.390625q6.9375 3.390625 11.171875 9.90625l0.34375 0l0 -45.03125l24.625 0zm-66.609375 78.79687q0 12.515625 5.84375 20.6875q5.84375 8.171875 15.828125 8.171875q10.234375 0 15.6875 -7.578125q5.46875 -7.578125 5.46875 -21.375q0 -13.109375 -5.328125 -20.765625q-5.328125 -7.671875 -15.921875 -7.671875q-10.234375 0 -15.90625 7.671875q-5.671875 7.65625 -5.671875 20.859375zm101.06323 -44.687492l20.296875 61.359367l0.34375 0l19.546875 -61.359367l25.484375 0l-38.09375 102.57812q-3.375 8.96875 -10.40625 13.78125q-7.015625 4.828125 -18.1875 4.828125q-5.34375 0 -9.03125 -0.25q-3.671875 -0.25 -7.5625 -0.671875l0 -20.234375q4.484375 0.515625 7.359375 0.671875q2.875 0.171875 5.5 0.171875q5.25 0 8.125 -3.21875q2.875 -3.203125 2.875 -8.03125q0 -1.265625 -0.171875 -2.484375q-0.15625 -1.234375 -0.921875 -3.09375l-31.5625 -84.04687l26.40625 0z" fill-rule="nonzero"/><path fill="#000000" fill-opacity="0.0" d="m455.7874 158.00525l507.0551 0l0 48.472443l-507.0551 0z" fill-rule="evenodd"/></g></svg>